<svg id="Capa_1" enable-background="new 0 0 512 512" height="512" viewBox="0 0 512 512" width="512" xmlns="http://www.w3.org/2000/svg"><path d="m466.519 342.488-99.078 17.833c-1.547.279-2.226 2.115-1.23 3.331l30.153 36.816c1.101 1.345.144 3.363-1.596 3.363h-277.547c-1.739 0-2.697-2.019-1.596-3.363l30.153-36.816c.996-1.216.317-3.052-1.23-3.331l-99.078-17.833c-1.608-.29-2.256-2.244-1.138-3.435l41.406-44.118c.65-.693.742-1.74.222-2.535l-58.122-88.809c-.809-1.237-.09-2.897 1.366-3.155l81.352-14.375c1.061-.188 1.799-1.16 1.692-2.232l-6.355-63.898c-.166-1.664 1.618-2.821 3.073-1.993l72.068 41.048c1.441.821 3.214-.309 3.076-1.96l-8.98-107.434c-.118-1.412 1.194-2.519 2.568-2.166l39.958 10.275c.876.225 1.797-.146 2.271-.916l34.317-55.802c.805-1.309 2.709-1.309 3.513 0l34.307 55.801c.474.77 1.394 1.142 2.271.917l39.958-10.275c1.374-.353 2.686.753 2.568 2.166l-8.971 107.434c-.138 1.652 1.634 2.781 3.076 1.96l72.068-41.048c1.454-.828 3.238.329 3.073 1.993l-6.365 63.897c-.107 1.072.631 2.044 1.692 2.232l81.362 14.375c1.457.257 2.176 1.918 1.366 3.155l-58.132 88.81c-.52.795-.429 1.843.221 2.536l41.406 44.118c1.118 1.19.471 3.145-1.138 3.434z" fill="#d35d3f"/><path d="m484.162 203.591c.81-1.237.09-2.898-1.366-3.155l-81.362-14.375c-1.061-.188-1.799-1.16-1.692-2.232l6.365-63.897c.166-1.664-1.618-2.821-3.073-1.993l-72.068 41.048c-1.441.821-3.214-.309-3.076-1.96l8.971-107.434c.118-1.412-1.194-2.519-2.568-2.166l-39.958 10.275c-.876.225-1.797-.146-2.271-.917l-34.307-55.801c-.805-1.309-2.709-1.309-3.513 0l-11.518 18.73 16.176 74.922c.474.77 1.394 1.142 2.271.917l39.958-10.275c1.374-.353 2.686.753 2.568 2.166l-10.834 112.24c-.138 1.652 1.634 2.781 3.076 1.96l72.068-41.048c1.454-.828 3.238.329 3.073 1.993l-8.03 36.867c-.107 1.072.631 2.044 1.692 2.232l81.362 14.375c1.457.257 2.176 1.918 1.366 3.155l-58.132 88.809c-.52.795-.429 1.843.222 2.536l13.053 11.027c1.118 1.191.47 3.146-1.138 3.435l-99.078 17.833c-1.547.278-2.226 2.115-1.23 3.331l48.243 57.643h45.358c1.739 0 2.697-2.019 1.596-3.363l-30.153-36.816c-.996-1.216-.317-3.052 1.23-3.331l99.078-17.833c1.608-.29 2.256-2.244 1.138-3.435l-41.406-44.118c-.65-.693-.742-1.741-.221-2.536z" fill="#c24b31"/><path d="m484.16 203.591-5.835 8.92-142.016 57.98 121.094 57.64 10.251 10.92c1.119 1.19.47 3.15-1.139 3.44l-10.031 1.8-138.958-66.13-54.033 22.07v204.269c0 4.14-3.357 7.5-7.493 7.5s-7.493-3.36-7.493-7.5v-204.269l-54.033-22.06-138.728 66.17-10.271-1.85c-1.609-.29-2.258-2.25-1.139-3.44l10.011-10.66 121.364-57.89-142.036-57.99-5.835-8.92c-.809-1.24-.09-2.9 1.369-3.16l10.171-1.8 137.49 56.15-69.62-121.149-1.359-13.7c-.16-1.66 1.619-2.82 3.077-1.99l9.761 5.56 80.729 140.499 49.047 20.03v-122.299l-72.395-100.42-.979-11.72c-.12-1.41 1.189-2.52 2.568-2.17l8.453 2.18 62.355 86.49v-125.78l5.735-9.33c.809-1.31 2.708-1.31 3.517 0l5.735 9.33v126.199l62.165-86.87 8.632-2.22c1.379-.35 2.688.76 2.568 2.17l-.959 11.51-72.407 101.169v121.759l49.047-20.03 80.599-140.429 9.891-5.63c1.459-.83 3.237.33 3.077 1.99l-1.349 13.52-69.639 121.329 137.5-56.15 10.171 1.8c1.46.263 2.179 1.923 1.37 3.162z" fill="#a63327"/></svg>