<svg id="Capa_1" enable-background="new 0 0 512 512" height="512" viewBox="0 0 512 512" width="512" xmlns="http://www.w3.org/2000/svg"><g><g><path d="m220.025 93.772h71.951v117.186h-71.951z" fill="#da4a54"/><path d="m220.025 93.772h22.693v117.186h-22.693z" fill="#c32430"/><path d="m79.088 97.763h79.81v406.737h-79.81z" fill="#da4a54"/><path d="m79.088 97.763h23.874v406.737h-23.874z" fill="#c32430"/><path d="m353.102 97.763h79.81v406.737h-79.81z" fill="#da4a54"/><path d="m353.102 97.763h23.874v406.737h-23.874z" fill="#c32430"/><path d="m504.5 7.5-41.42 108.89h-414.16l-41.42-108.89c165.01 20.85 331.99 20.85 497 0z" fill="#da4a54"/><path d="m504.5 7.5-11.14 29.28c-157.67 19.02-317.05 19.02-474.72 0l-11.14-29.28c165.01 20.849 331.99 20.849 497 0z" fill="#8bc852"/><path d="m461.336 273.466h-410.672c-10.759 0-19.481-8.722-19.481-19.481v-22.22c0-10.759 8.722-19.481 19.481-19.481h410.672c10.759 0 19.481 8.722 19.481 19.481v22.22c0 10.759-8.722 19.481-19.481 19.481z" fill="#da4a54"/></g><path d="m463.08 123.89c3.113 0 5.903-1.923 7.01-4.833l41.42-108.89c.936-2.461.513-5.233-1.115-7.303s-4.222-3.132-6.835-2.804c-164.27 20.757-330.852 20.757-495.12 0-2.607-.329-5.207.733-6.835 2.803-1.628 2.07-2.051 4.842-1.115 7.303l41.42 108.89c1.106 2.91 3.896 4.833 7.01 4.833h22.67v80.894h-20.926c-14.877 0-26.981 12.104-26.981 26.981v22.22c0 14.877 12.104 26.981 26.981 26.981h20.926v223.535c0 4.142 3.358 7.5 7.5 7.5h79.81c4.142 0 7.5-3.358 7.5-7.5v-137.67c0-4.142-3.358-7.5-7.5-7.5s-7.5 3.358-7.5 7.5v130.17h-64.81v-216.034h64.81v55.864c0 4.142 3.358 7.5 7.5 7.5s7.5-3.358 7.5-7.5v-55.864h179.2v223.534c0 4.142 3.358 7.5 7.5 7.5h79.81c4.142 0 7.5-3.358 7.5-7.5v-223.534h20.926c14.877 0 26.981-12.104 26.981-26.981v-22.22c0-14.877-12.104-26.981-26.981-26.981h-20.926v-80.894zm-433.039-78.228c74.922 8.563 150.579 12.864 226.18 12.864 41.848 0 83.687-1.316 125.353-3.952 4.134-.261 7.273-3.824 7.011-7.958-.261-4.133-3.814-7.274-7.958-7.011-118.642 7.503-238.589 4.22-356.596-9.742l-5.096-13.398c157.379 18.882 316.75 18.883 474.131 0l-5.097 13.399c-25.87 3.062-52.028 5.637-77.831 7.648-4.129.322-7.216 3.931-6.895 8.061.307 3.931 3.592 6.917 7.469 6.917.196 0 .393-.008.591-.023 23.419-1.825 47.129-4.111 70.654-6.801l-24.049 63.223h-403.817zm269.434 159.122v-80.894h46.125v80.894zm-133.075 0v-80.894h46.125v80.894zm61.125-80.894h56.95v80.894h-56.95zm-140.935 0h64.81v80.894h-64.81zm338.82 373.11h-64.81v-216.034h64.81zm47.907-265.235v22.22c0 6.606-5.375 11.981-11.981 11.981h-410.672c-6.606 0-11.981-5.375-11.981-11.981v-22.22c0-6.606 5.375-11.981 11.981-11.981h410.672c6.606 0 11.981 5.375 11.981 11.981zm-47.907-26.981h-64.81v-80.894h64.81z"/></g></svg>